<mxfile host="www.draw.io" modified="2019-10-28T04:06:45.234Z" agent="Mozilla/5.0 (Windows NT 10.0; Win64; x64) AppleWebKit/537.36 (KHTML, like Gecko) Chrome/78.0.3904.70 Safari/537.36" etag="PaMqHsUv9l2kC2bmjDxh" version="12.1.7" type="github" pages="1">
  <diagram id="VOGU1n00awtJ55gnDfI6" name="Page-1">
    <mxGraphModel dx="820" dy="521" grid="1" gridSize="10" guides="1" tooltips="1" connect="1" arrows="1" fold="1" page="1" pageScale="1" pageWidth="827" pageHeight="1169" math="0" shadow="0">
      <root>
        <mxCell id="0"/>
        <mxCell id="1" parent="0"/>
        <mxCell id="lj-SIOatGXmswrZ_GrTb-2" value="" style="rounded=0;whiteSpace=wrap;html=1;" parent="1" vertex="1">
          <mxGeometry x="20" y="20" width="120" height="30" as="geometry"/>
        </mxCell>
        <mxCell id="lj-SIOatGXmswrZ_GrTb-6" value="" style="rounded=0;whiteSpace=wrap;html=1;" parent="1" vertex="1">
          <mxGeometry x="20" y="50" width="120" height="150" as="geometry"/>
        </mxCell>
        <mxCell id="lj-SIOatGXmswrZ_GrTb-7" value="" style="rounded=0;whiteSpace=wrap;html=1;" parent="1" vertex="1">
          <mxGeometry x="310" y="30" width="140" height="30" as="geometry"/>
        </mxCell>
        <mxCell id="lj-SIOatGXmswrZ_GrTb-9" value="" style="rounded=0;whiteSpace=wrap;html=1;" parent="1" vertex="1">
          <mxGeometry x="270" y="60" width="230" height="60" as="geometry"/>
        </mxCell>
        <mxCell id="lj-SIOatGXmswrZ_GrTb-10" value="User" style="text;html=1;strokeColor=none;fillColor=none;align=center;verticalAlign=middle;whiteSpace=wrap;rounded=0;" parent="1" vertex="1">
          <mxGeometry x="40" y="25" width="80" height="20" as="geometry"/>
        </mxCell>
        <mxCell id="lj-SIOatGXmswrZ_GrTb-11" value="DataBase" style="text;html=1;strokeColor=none;fillColor=none;align=center;verticalAlign=middle;whiteSpace=wrap;rounded=0;" parent="1" vertex="1">
          <mxGeometry x="340" y="35" width="90" height="20" as="geometry"/>
        </mxCell>
        <mxCell id="lj-SIOatGXmswrZ_GrTb-12" value="" style="rounded=0;whiteSpace=wrap;html=1;" parent="1" vertex="1">
          <mxGeometry x="590" y="140" width="180" height="40" as="geometry"/>
        </mxCell>
        <mxCell id="lj-SIOatGXmswrZ_GrTb-13" value="Room" style="text;html=1;strokeColor=none;fillColor=none;align=center;verticalAlign=middle;whiteSpace=wrap;rounded=0;" parent="1" vertex="1">
          <mxGeometry x="600" y="150" width="160" height="20" as="geometry"/>
        </mxCell>
        <mxCell id="lj-SIOatGXmswrZ_GrTb-14" value="" style="rounded=0;whiteSpace=wrap;html=1;" parent="1" vertex="1">
          <mxGeometry x="580" y="180" width="200" height="140" as="geometry"/>
        </mxCell>
        <mxCell id="lj-SIOatGXmswrZ_GrTb-15" value="" style="endArrow=classic;html=1;" parent="1" edge="1">
          <mxGeometry width="50" height="50" relative="1" as="geometry">
            <mxPoint x="140" y="80" as="sourcePoint"/>
            <mxPoint x="270" y="80" as="targetPoint"/>
          </mxGeometry>
        </mxCell>
        <mxCell id="lj-SIOatGXmswrZ_GrTb-16" value="" style="endArrow=classic;html=1;exitX=0;exitY=0.714;exitDx=0;exitDy=0;exitPerimeter=0;" parent="1" source="lj-SIOatGXmswrZ_GrTb-9" edge="1">
          <mxGeometry width="50" height="50" relative="1" as="geometry">
            <mxPoint x="20" y="270" as="sourcePoint"/>
            <mxPoint x="142" y="103" as="targetPoint"/>
          </mxGeometry>
        </mxCell>
        <mxCell id="lj-SIOatGXmswrZ_GrTb-19" value="" style="endArrow=classic;html=1;entryX=0.006;entryY=0.15;entryDx=0;entryDy=0;entryPerimeter=0;exitX=1;exitY=0.5;exitDx=0;exitDy=0;" parent="1" source="lj-SIOatGXmswrZ_GrTb-9" target="lj-SIOatGXmswrZ_GrTb-14" edge="1">
          <mxGeometry width="50" height="50" relative="1" as="geometry">
            <mxPoint x="500" y="81" as="sourcePoint"/>
            <mxPoint x="530" y="60" as="targetPoint"/>
          </mxGeometry>
        </mxCell>
        <mxCell id="7LAklyptdamhol4aCnqP-2" value="・string : _UserID" style="text;html=1;strokeColor=none;fillColor=none;align=center;verticalAlign=middle;whiteSpace=wrap;rounded=0;" parent="1" vertex="1">
          <mxGeometry x="30" y="60" width="100" height="20" as="geometry"/>
        </mxCell>
        <mxCell id="7LAklyptdamhol4aCnqP-3" value="・string _UserName" style="text;html=1;strokeColor=none;fillColor=none;align=center;verticalAlign=middle;whiteSpace=wrap;rounded=0;" parent="1" vertex="1">
          <mxGeometry x="20" y="80" width="120" height="20" as="geometry"/>
        </mxCell>
        <mxCell id="7LAklyptdamhol4aCnqP-4" value="・map&amp;lt;_UserID,_UserName&amp;gt; UserData" style="text;html=1;strokeColor=none;fillColor=none;align=center;verticalAlign=middle;whiteSpace=wrap;rounded=0;" parent="1" vertex="1">
          <mxGeometry x="270" y="70" width="220" height="20" as="geometry"/>
        </mxCell>
        <mxCell id="YrYj_6Nn_D_Z3J5tRoMV-1" style="edgeStyle=orthogonalEdgeStyle;rounded=0;orthogonalLoop=1;jettySize=auto;html=1;exitX=0.5;exitY=1;exitDx=0;exitDy=0;" parent="1" source="lj-SIOatGXmswrZ_GrTb-9" target="lj-SIOatGXmswrZ_GrTb-9" edge="1">
          <mxGeometry relative="1" as="geometry"/>
        </mxCell>
        <mxCell id="YrYj_6Nn_D_Z3J5tRoMV-2" value="" style="endArrow=none;html=1;exitX=0;exitY=0.5;exitDx=0;exitDy=0;entryX=1;entryY=0.5;entryDx=0;entryDy=0;" parent="1" source="lj-SIOatGXmswrZ_GrTb-6" target="lj-SIOatGXmswrZ_GrTb-6" edge="1">
          <mxGeometry width="50" height="50" relative="1" as="geometry">
            <mxPoint x="30" y="160" as="sourcePoint"/>
            <mxPoint x="80" y="110" as="targetPoint"/>
          </mxGeometry>
        </mxCell>
        <mxCell id="YrYj_6Nn_D_Z3J5tRoMV-5" value="" style="rounded=0;whiteSpace=wrap;html=1;" parent="1" vertex="1">
          <mxGeometry x="270" y="120" width="230" height="100" as="geometry"/>
        </mxCell>
        <mxCell id="YrYj_6Nn_D_Z3J5tRoMV-6" value="・map&amp;lt;_roomID,roomData&amp;gt; RoomData" style="text;html=1;strokeColor=none;fillColor=none;align=center;verticalAlign=middle;whiteSpace=wrap;rounded=0;" parent="1" vertex="1">
          <mxGeometry x="265" y="150" width="230" height="20" as="geometry"/>
        </mxCell>
        <mxCell id="YrYj_6Nn_D_Z3J5tRoMV-7" value="" style="endArrow=classic;html=1;entryX=-0.008;entryY=0.32;entryDx=0;entryDy=0;entryPerimeter=0;exitX=1;exitY=0.5;exitDx=0;exitDy=0;" parent="1" source="YrYj_6Nn_D_Z3J5tRoMV-5" target="lj-SIOatGXmswrZ_GrTb-14" edge="1">
          <mxGeometry width="50" height="50" relative="1" as="geometry">
            <mxPoint x="510" y="240" as="sourcePoint"/>
            <mxPoint x="560" y="190" as="targetPoint"/>
            <Array as="points">
              <mxPoint x="520" y="170"/>
              <mxPoint x="520" y="225"/>
            </Array>
          </mxGeometry>
        </mxCell>
        <mxCell id="YrYj_6Nn_D_Z3J5tRoMV-8" value="・string : _roomID" style="text;html=1;strokeColor=none;fillColor=none;align=center;verticalAlign=middle;whiteSpace=wrap;rounded=0;" parent="1" vertex="1">
          <mxGeometry x="30" y="132.5" width="100" height="15" as="geometry"/>
        </mxCell>
        <mxCell id="YrYj_6Nn_D_Z3J5tRoMV-9" value="・CreateRoom : _roomData" style="text;html=1;strokeColor=none;fillColor=none;align=center;verticalAlign=middle;whiteSpace=wrap;rounded=0;" parent="1" vertex="1">
          <mxGeometry x="20" y="160" width="120" height="30" as="geometry"/>
        </mxCell>
        <mxCell id="YrYj_6Nn_D_Z3J5tRoMV-10" value="" style="endArrow=classic;html=1;exitX=0.5;exitY=1;exitDx=0;exitDy=0;entryX=0.446;entryY=0;entryDx=0;entryDy=0;entryPerimeter=0;" parent="1" source="lj-SIOatGXmswrZ_GrTb-6" target="YrYj_6Nn_D_Z3J5tRoMV-11" edge="1">
          <mxGeometry width="50" height="50" relative="1" as="geometry">
            <mxPoint x="70" y="290" as="sourcePoint"/>
            <mxPoint x="80" y="240" as="targetPoint"/>
            <Array as="points">
              <mxPoint x="80" y="230"/>
              <mxPoint x="122" y="230"/>
            </Array>
          </mxGeometry>
        </mxCell>
        <mxCell id="YrYj_6Nn_D_Z3J5tRoMV-11" value="CreateRoom(_roomID)" style="rounded=0;whiteSpace=wrap;html=1;" parent="1" vertex="1">
          <mxGeometry x="60" y="260" width="140" height="30" as="geometry"/>
        </mxCell>
        <mxCell id="YrYj_6Nn_D_Z3J5tRoMV-13" value="" style="rounded=0;whiteSpace=wrap;html=1;" parent="1" vertex="1">
          <mxGeometry x="40" y="290" width="180" height="80" as="geometry"/>
        </mxCell>
        <mxCell id="YrYj_6Nn_D_Z3J5tRoMV-14" value="result : roomData" style="text;html=1;strokeColor=none;fillColor=none;align=center;verticalAlign=middle;whiteSpace=wrap;rounded=0;" parent="1" vertex="1">
          <mxGeometry x="60" y="340" width="130" height="20" as="geometry"/>
        </mxCell>
        <mxCell id="YrYj_6Nn_D_Z3J5tRoMV-15" value="・enum : Rule : roomRule" style="text;html=1;strokeColor=none;fillColor=none;align=center;verticalAlign=middle;whiteSpace=wrap;rounded=0;" parent="1" vertex="1">
          <mxGeometry x="45" y="300" width="160" height="20" as="geometry"/>
        </mxCell>
        <mxCell id="YrYj_6Nn_D_Z3J5tRoMV-17" value="" style="endArrow=classic;html=1;exitX=1.009;exitY=0.625;exitDx=0;exitDy=0;exitPerimeter=0;entryX=0;entryY=0.75;entryDx=0;entryDy=0;" parent="1" source="YrYj_6Nn_D_Z3J5tRoMV-13" target="YrYj_6Nn_D_Z3J5tRoMV-6" edge="1">
          <mxGeometry width="50" height="50" relative="1" as="geometry">
            <mxPoint x="220" y="360" as="sourcePoint"/>
            <mxPoint x="270" y="310" as="targetPoint"/>
            <Array as="points">
              <mxPoint x="240" y="340"/>
              <mxPoint x="240" y="165"/>
            </Array>
          </mxGeometry>
        </mxCell>
        <mxCell id="YrYj_6Nn_D_Z3J5tRoMV-18" value="ChangeHost(_UserID)" style="rounded=0;whiteSpace=wrap;html=1;" parent="1" vertex="1">
          <mxGeometry x="330" y="240" width="180" height="30" as="geometry"/>
        </mxCell>
        <mxCell id="YrYj_6Nn_D_Z3J5tRoMV-20" value="" style="rounded=0;whiteSpace=wrap;html=1;" parent="1" vertex="1">
          <mxGeometry x="320" y="270" width="200" height="60" as="geometry"/>
        </mxCell>
        <mxCell id="YrYj_6Nn_D_Z3J5tRoMV-21" value="・_roomID = _UserID" style="text;html=1;strokeColor=none;fillColor=none;align=center;verticalAlign=middle;whiteSpace=wrap;rounded=0;" parent="1" vertex="1">
          <mxGeometry x="345" y="280" width="155" height="20" as="geometry"/>
        </mxCell>
        <mxCell id="YrYj_6Nn_D_Z3J5tRoMV-22" value="result : _roomID" style="text;html=1;strokeColor=none;fillColor=none;align=center;verticalAlign=middle;whiteSpace=wrap;rounded=0;" parent="1" vertex="1">
          <mxGeometry x="350" y="300" width="150" height="20" as="geometry"/>
        </mxCell>
        <mxCell id="YrYj_6Nn_D_Z3J5tRoMV-26" value="" style="endArrow=classic;html=1;entryX=1;entryY=0.25;entryDx=0;entryDy=0;exitX=0;exitY=0.75;exitDx=0;exitDy=0;" parent="1" source="lj-SIOatGXmswrZ_GrTb-14" target="YrYj_6Nn_D_Z3J5tRoMV-20" edge="1">
          <mxGeometry width="50" height="50" relative="1" as="geometry">
            <mxPoint x="530" y="320" as="sourcePoint"/>
            <mxPoint x="580" y="270" as="targetPoint"/>
          </mxGeometry>
        </mxCell>
        <mxCell id="YrYj_6Nn_D_Z3J5tRoMV-27" value="" style="endArrow=classic;html=1;" parent="1" edge="1">
          <mxGeometry width="50" height="50" relative="1" as="geometry">
            <mxPoint x="520" y="312" as="sourcePoint"/>
            <mxPoint x="579" y="312" as="targetPoint"/>
          </mxGeometry>
        </mxCell>
        <mxCell id="YrYj_6Nn_D_Z3J5tRoMV-28" value="ChangeRule(&amp;amp;roomData,Rule : changeRule)" style="rounded=0;whiteSpace=wrap;html=1;" parent="1" vertex="1">
          <mxGeometry x="165" y="450" width="280" height="30" as="geometry"/>
        </mxCell>
        <mxCell id="YrYj_6Nn_D_Z3J5tRoMV-29" value="" style="rounded=0;whiteSpace=wrap;html=1;" parent="1" vertex="1">
          <mxGeometry x="160" y="480" width="290" height="40" as="geometry"/>
        </mxCell>
        <mxCell id="YrYj_6Nn_D_Z3J5tRoMV-30" value="・roomData.roomRule = changeRule" style="text;html=1;strokeColor=none;fillColor=none;align=center;verticalAlign=middle;whiteSpace=wrap;rounded=0;" parent="1" vertex="1">
          <mxGeometry x="170" y="490" width="260" height="20" as="geometry"/>
        </mxCell>
        <mxCell id="YrYj_6Nn_D_Z3J5tRoMV-35" value="_roomID == _UserID" style="rounded=0;whiteSpace=wrap;html=1;" parent="1" vertex="1">
          <mxGeometry x="590" y="190" width="180" height="20" as="geometry"/>
        </mxCell>
        <mxCell id="YrYj_6Nn_D_Z3J5tRoMV-38" value="" style="rounded=1;whiteSpace=wrap;html=1;" parent="1" vertex="1">
          <mxGeometry x="590" y="210" width="180" height="60" as="geometry"/>
        </mxCell>
        <mxCell id="YrYj_6Nn_D_Z3J5tRoMV-39" value="" style="endArrow=none;html=1;entryX=1;entryY=0.5;entryDx=0;entryDy=0;exitX=0;exitY=0.5;exitDx=0;exitDy=0;" parent="1" source="YrYj_6Nn_D_Z3J5tRoMV-38" target="YrYj_6Nn_D_Z3J5tRoMV-38" edge="1">
          <mxGeometry width="50" height="50" relative="1" as="geometry">
            <mxPoint x="590" y="260" as="sourcePoint"/>
            <mxPoint x="640" y="210" as="targetPoint"/>
          </mxGeometry>
        </mxCell>
        <mxCell id="YrYj_6Nn_D_Z3J5tRoMV-40" value="・HostID" style="text;html=1;strokeColor=none;fillColor=none;align=center;verticalAlign=middle;whiteSpace=wrap;rounded=0;" parent="1" vertex="1">
          <mxGeometry x="615" y="210" width="130" height="20" as="geometry"/>
        </mxCell>
        <mxCell id="YrYj_6Nn_D_Z3J5tRoMV-41" value="・GuestID" style="text;html=1;strokeColor=none;fillColor=none;align=center;verticalAlign=middle;whiteSpace=wrap;rounded=0;" parent="1" vertex="1">
          <mxGeometry x="640" y="245" width="80" height="20" as="geometry"/>
        </mxCell>
        <mxCell id="YrYj_6Nn_D_Z3J5tRoMV-42" value="Rule" style="rounded=0;whiteSpace=wrap;html=1;" parent="1" vertex="1">
          <mxGeometry x="590" y="355" width="120" height="35" as="geometry"/>
        </mxCell>
        <mxCell id="YrYj_6Nn_D_Z3J5tRoMV-43" value="" style="rounded=0;whiteSpace=wrap;html=1;" parent="1" vertex="1">
          <mxGeometry x="570" y="390" width="180" height="130" as="geometry"/>
        </mxCell>
        <mxCell id="YrYj_6Nn_D_Z3J5tRoMV-45" value="RoomData[_roomID].roomRule" style="text;html=1;strokeColor=none;fillColor=none;align=center;verticalAlign=middle;whiteSpace=wrap;rounded=0;" parent="1" vertex="1">
          <mxGeometry x="580" y="390" width="160" height="40" as="geometry"/>
        </mxCell>
        <mxCell id="YrYj_6Nn_D_Z3J5tRoMV-46" value="" style="endArrow=none;html=1;exitX=-0.002;exitY=0.385;exitDx=0;exitDy=0;exitPerimeter=0;" parent="1" source="YrYj_6Nn_D_Z3J5tRoMV-43" edge="1">
          <mxGeometry width="50" height="50" relative="1" as="geometry">
            <mxPoint x="570" y="470" as="sourcePoint"/>
            <mxPoint x="753" y="440" as="targetPoint"/>
          </mxGeometry>
        </mxCell>
        <mxCell id="YrYj_6Nn_D_Z3J5tRoMV-47" value="HostID" style="rounded=1;whiteSpace=wrap;html=1;" parent="1" vertex="1">
          <mxGeometry x="580" y="460" width="160" height="40" as="geometry"/>
        </mxCell>
        <mxCell id="YrYj_6Nn_D_Z3J5tRoMV-48" value="" style="endArrow=classic;html=1;entryX=1;entryY=0.5;entryDx=0;entryDy=0;" parent="1" target="YrYj_6Nn_D_Z3J5tRoMV-28" edge="1">
          <mxGeometry width="50" height="50" relative="1" as="geometry">
            <mxPoint x="567" y="465" as="sourcePoint"/>
            <mxPoint x="570" y="450" as="targetPoint"/>
          </mxGeometry>
        </mxCell>
        <mxCell id="YrYj_6Nn_D_Z3J5tRoMV-49" value="" style="endArrow=classic;html=1;exitX=1;exitY=0.5;exitDx=0;exitDy=0;entryX=0;entryY=0.846;entryDx=0;entryDy=0;entryPerimeter=0;" parent="1" source="YrYj_6Nn_D_Z3J5tRoMV-29" target="YrYj_6Nn_D_Z3J5tRoMV-43" edge="1">
          <mxGeometry width="50" height="50" relative="1" as="geometry">
            <mxPoint x="460" y="530" as="sourcePoint"/>
            <mxPoint x="510" y="480" as="targetPoint"/>
          </mxGeometry>
        </mxCell>
        <mxCell id="YrYj_6Nn_D_Z3J5tRoMV-50" value="" style="endArrow=classic;html=1;entryX=0.5;entryY=1;entryDx=0;entryDy=0;exitX=0.75;exitY=0;exitDx=0;exitDy=0;" parent="1" source="YrYj_6Nn_D_Z3J5tRoMV-42" target="lj-SIOatGXmswrZ_GrTb-14" edge="1">
          <mxGeometry width="50" height="50" relative="1" as="geometry">
            <mxPoint x="520" y="370" as="sourcePoint"/>
            <mxPoint x="570" y="320" as="targetPoint"/>
          </mxGeometry>
        </mxCell>
        <mxCell id="YrYj_6Nn_D_Z3J5tRoMV-51" value="" style="endArrow=classic;html=1;exitX=0.25;exitY=1;exitDx=0;exitDy=0;" parent="1" source="lj-SIOatGXmswrZ_GrTb-14" edge="1">
          <mxGeometry width="50" height="50" relative="1" as="geometry">
            <mxPoint x="510" y="390" as="sourcePoint"/>
            <mxPoint x="630" y="350" as="targetPoint"/>
          </mxGeometry>
        </mxCell>
        <mxCell id="YrYj_6Nn_D_Z3J5tRoMV-52" value="" style="endArrow=classic;html=1;exitX=1.016;exitY=0.423;exitDx=0;exitDy=0;exitPerimeter=0;" parent="1" source="lj-SIOatGXmswrZ_GrTb-14" edge="1">
          <mxGeometry width="50" height="50" relative="1" as="geometry">
            <mxPoint x="800" y="230" as="sourcePoint"/>
            <mxPoint x="480" y="720" as="targetPoint"/>
            <Array as="points">
              <mxPoint x="810" y="239"/>
              <mxPoint x="810" y="560"/>
              <mxPoint x="480" y="560"/>
            </Array>
          </mxGeometry>
        </mxCell>
        <mxCell id="YrYj_6Nn_D_Z3J5tRoMV-53" value="GameMainへ" style="ellipse;whiteSpace=wrap;html=1;" parent="1" vertex="1">
          <mxGeometry x="330" y="730" width="290" height="80" as="geometry"/>
        </mxCell>
      </root>
    </mxGraphModel>
  </diagram>
</mxfile>
